<svg xmlns="http://www.w3.org/2000/svg" id="Layer_1" viewBox="0 0 250 250"><style id="style2">.st0{fill:#DD0031;} .st1{fill:#C3002F;} .st2{fill:#ffffff;}</style><g id="g10"><path class="st0" id="polygon4" d="M125 30L31.9 63.2l14.2 123.1L125 230l78.9-43.7 14.2-123.1z"/><path class="st1" id="polygon6" d="M125 30v22.2-.1V230l78.9-43.7 14.2-123.1L125 30z"/><path id="path8" class="st2" d="M125 52.1L66.8 182.6h21.7l11.7-29.2L125 94.5l24.6 58.9 11.7 29.2H183zm24.6 101.3c-.502.115-.665.156-1.137.264l.004.012c.422-.104.694-.167 1.133-.276zm-49.4 0h.01s-.003 0-.003-.002c-.003 0-.005 0-.008.002zm12.857-11.13c-.03.033-.063.062-.09.097-.008.01.02 0 .04-.014.014-.028.034-.054.05-.082z"/></g></svg>